<svg width="144" height="29" viewBox="0 0 144 29" fill="none" xmlns="http://www.w3.org/2000/svg">
<path d="M46.2 10.8H47.688V22H46.2V10.8ZM53.9306 13.792C54.8693 13.792 55.6213 14.0907 56.1866 14.688C56.752 15.2747 57.0346 16.0747 57.0346 17.088V22H55.6426V17.168C55.6426 16.5173 55.4666 16.016 55.1146 15.664C54.7626 15.3013 54.2773 15.12 53.6586 15.12C52.9653 15.12 52.4053 15.3387 51.9786 15.776C51.552 16.2027 51.3386 16.864 51.3386 17.76V22H49.9466V14H51.3386V15.152C51.904 14.2453 52.768 13.792 53.9306 13.792ZM60.1779 16.16C60.1779 16.4693 60.3325 16.72 60.6419 16.912C60.9512 17.0933 61.3245 17.2427 61.7619 17.36C62.1992 17.4667 62.6365 17.5947 63.0739 17.744C63.5112 17.8827 63.8845 18.128 64.1939 18.48C64.5032 18.8213 64.6579 19.264 64.6579 19.808C64.6579 20.5333 64.3752 21.1147 63.8099 21.552C63.2552 21.9893 62.5405 22.208 61.6659 22.208C60.8872 22.208 60.2205 22.0373 59.6659 21.696C59.1112 21.3547 58.7165 20.9013 58.4819 20.336L59.6819 19.648C59.8099 20.032 60.0499 20.336 60.4019 20.56C60.7539 20.784 61.1752 20.896 61.6659 20.896C62.1245 20.896 62.5032 20.8107 62.8019 20.64C63.1005 20.4587 63.2499 20.1813 63.2499 19.808C63.2499 19.4987 63.0952 19.2533 62.7859 19.072C62.4765 18.88 62.1032 18.7307 61.6659 18.624C61.2285 18.5067 60.7912 18.3733 60.3539 18.224C59.9165 18.0747 59.5432 17.8293 59.2339 17.488C58.9245 17.1467 58.7699 16.7093 58.7699 16.176C58.7699 15.4827 59.0365 14.912 59.5699 14.464C60.1139 14.016 60.7912 13.792 61.6019 13.792C62.2525 13.792 62.8285 13.9413 63.3299 14.24C63.8419 14.528 64.2259 14.9333 64.4819 15.456L63.3139 16.112C63.0259 15.4293 62.4552 15.088 61.6019 15.088C61.2072 15.088 60.8712 15.184 60.5939 15.376C60.3165 15.5573 60.1779 15.8187 60.1779 16.16ZM70.3455 15.344H68.2175V19.68C68.2175 20.0747 68.2922 20.3573 68.4415 20.528C68.6015 20.688 68.8415 20.7733 69.1615 20.784C69.4815 20.784 69.8762 20.7733 70.3455 20.752V22C69.1295 22.16 68.2388 22.064 67.6735 21.712C67.1082 21.3493 66.8255 20.672 66.8255 19.68V15.344H65.2415V14H66.8255V12.176L68.2175 11.76V14H70.3455V15.344ZM78.2113 14H79.6033V22H78.2113V20.624C77.5179 21.68 76.5099 22.208 75.1873 22.208C74.0673 22.208 73.1126 21.8027 72.3233 20.992C71.5339 20.1707 71.1393 19.1733 71.1393 18C71.1393 16.8267 71.5339 15.8347 72.3233 15.024C73.1126 14.2027 74.0673 13.792 75.1873 13.792C76.5099 13.792 77.5179 14.32 78.2113 15.376V14ZM75.3633 20.864C76.1739 20.864 76.8513 20.592 77.3953 20.048C77.9393 19.4933 78.2113 18.8107 78.2113 18C78.2113 17.1893 77.9393 16.512 77.3953 15.968C76.8513 15.4133 76.1739 15.136 75.3633 15.136C74.5633 15.136 73.8913 15.4133 73.3473 15.968C72.8033 16.512 72.5312 17.1893 72.5312 18C72.5312 18.8107 72.8033 19.4933 73.3473 20.048C73.8913 20.592 74.5633 20.864 75.3633 20.864ZM88.3523 14H89.7283V21.664C89.7283 22.848 89.3283 23.7653 88.5283 24.416C87.7283 25.0773 86.7683 25.408 85.6483 25.408C84.7523 25.408 83.9789 25.2373 83.3283 24.896C82.6776 24.5653 82.1869 24.0853 81.8563 23.456L83.0723 22.768C83.5096 23.664 84.3789 24.112 85.6803 24.112C86.5123 24.112 87.1629 23.8933 87.6323 23.456C88.1123 23.0187 88.3523 22.4213 88.3523 21.664V20.528C87.6483 21.5947 86.6456 22.128 85.3443 22.128C84.2029 22.128 83.2376 21.7227 82.4483 20.912C81.6589 20.1013 81.2643 19.1147 81.2643 17.952C81.2643 16.7893 81.6589 15.808 82.4483 15.008C83.2376 14.1973 84.2029 13.792 85.3443 13.792C86.6563 13.792 87.6589 14.32 88.3523 15.376V14ZM83.4723 19.984C84.0163 20.528 84.6936 20.8 85.5043 20.8C86.3149 20.8 86.9923 20.528 87.5363 19.984C88.0803 19.44 88.3523 18.7627 88.3523 17.952C88.3523 17.152 88.0803 16.48 87.5363 15.936C86.9923 15.392 86.3149 15.12 85.5043 15.12C84.6936 15.12 84.0163 15.392 83.4723 15.936C82.9283 16.48 82.6562 17.152 82.6562 17.952C82.6562 18.7627 82.9283 19.44 83.4723 19.984ZM93.2293 15.344C93.6879 14.352 94.5199 13.856 95.7253 13.856V15.312C95.0426 15.28 94.4559 15.4613 93.9653 15.856C93.4746 16.2507 93.2293 16.8853 93.2293 17.76V22H91.8372V14H93.2293V15.344ZM103.274 14H104.666V22H103.274V20.624C102.58 21.68 101.572 22.208 100.25 22.208C99.1298 22.208 98.1751 21.8027 97.3858 20.992C96.5964 20.1707 96.2018 19.1733 96.2018 18C96.2018 16.8267 96.5964 15.8347 97.3858 15.024C98.1751 14.2027 99.1298 13.792 100.25 13.792C101.572 13.792 102.58 14.32 103.274 15.376V14ZM100.426 20.864C101.236 20.864 101.914 20.592 102.458 20.048C103.002 19.4933 103.274 18.8107 103.274 18C103.274 17.1893 103.002 16.512 102.458 15.968C101.914 15.4133 101.236 15.136 100.426 15.136C99.6258 15.136 98.9538 15.4133 98.4098 15.968C97.8658 16.512 97.5938 17.1893 97.5938 18C97.5938 18.8107 97.8658 19.4933 98.4098 20.048C98.9538 20.592 99.6258 20.864 100.426 20.864ZM115.415 13.792C116.311 13.792 117.036 14.0853 117.591 14.672C118.145 15.248 118.423 16.032 118.423 17.024V22H117.031V17.072C117.031 16.4533 116.871 15.9733 116.551 15.632C116.231 15.2907 115.804 15.12 115.271 15.12C114.673 15.12 114.193 15.3227 113.831 15.728C113.479 16.1227 113.303 16.7307 113.303 17.552V22H111.911V17.072C111.911 16.4533 111.756 15.9733 111.447 15.632C111.148 15.2907 110.737 15.12 110.215 15.12C109.628 15.12 109.137 15.3227 108.743 15.728C108.359 16.1333 108.167 16.7413 108.167 17.552V22H106.775V14H108.167V15.072C108.711 14.2187 109.505 13.792 110.551 13.792C111.628 13.792 112.412 14.2453 112.903 15.152C113.457 14.2453 114.295 13.792 115.415 13.792Z" fill="#7E838C"/>
<path d="M27.5 14.0268C26.1381 14.0268 25.0267 15.1382 25.0267 16.5001C25.0267 17.862 26.1381 18.9735 27.5 18.9735C28.8619 18.9735 29.9734 17.862 29.9734 16.5001C29.9734 15.1382 28.8619 14.0268 27.5 14.0268ZM34.9182 16.5001C34.9182 15.4759 34.9275 14.461 34.8699 13.4386C34.8124 12.2511 34.5415 11.1972 33.6732 10.3288C32.803 9.45861 31.7509 9.18957 30.5634 9.13205C29.5392 9.07453 28.5242 9.0838 27.5019 9.0838C26.4777 9.0838 25.4627 9.07453 24.4404 9.13205C23.2529 9.18957 22.199 9.46046 21.3306 10.3288C20.4604 11.199 20.1913 12.2511 20.1338 13.4386C20.0763 14.4628 20.0856 15.4777 20.0856 16.5001C20.0856 17.5225 20.0763 18.5393 20.1338 19.5616C20.1913 20.7491 20.4622 21.803 21.3306 22.6714C22.2008 23.5416 23.2529 23.8107 24.4404 23.8682C25.4646 23.9257 26.4795 23.9164 27.5019 23.9164C28.5261 23.9164 29.541 23.9257 30.5634 23.8682C31.7509 23.8107 32.8048 23.5398 33.6732 22.6714C34.5434 21.8012 34.8124 20.7491 34.8699 19.5616C34.9293 18.5393 34.9182 17.5243 34.9182 16.5001ZM27.5 20.3057C25.3941 20.3057 23.6945 18.6061 23.6945 16.5001C23.6945 14.3942 25.3941 12.6945 27.5 12.6945C29.606 12.6945 31.3056 14.3942 31.3056 16.5001C31.3056 18.6061 29.606 20.3057 27.5 20.3057ZM31.4615 13.4275C30.9698 13.4275 30.5727 13.0304 30.5727 12.5387C30.5727 12.047 30.9698 11.6499 31.4615 11.6499C31.9532 11.6499 32.3502 12.047 32.3502 12.5387C32.3504 12.6554 32.3275 12.7711 32.2829 12.879C32.2383 12.9869 32.1728 13.0849 32.0902 13.1675C32.0077 13.25 31.9096 13.3155 31.8017 13.3601C31.6938 13.4047 31.5782 13.4276 31.4615 13.4275Z" fill="#7E838C"/>
</svg>
