<svg width="133" height="25" viewBox="0 0 133 25" fill="none" xmlns="http://www.w3.org/2000/svg">
<path d="M41.6 12.192C42.112 12.4373 42.5173 12.7893 42.816 13.248C43.1253 13.7067 43.28 14.2347 43.28 14.832C43.28 15.728 42.9653 16.48 42.336 17.088C41.7067 17.696 40.9387 18 40.032 18H35.2V6.8H39.68C40.5547 6.8 41.296 7.09333 41.904 7.68C42.512 8.26667 42.816 8.992 42.816 9.856C42.816 10.848 42.4107 11.6267 41.6 12.192ZM39.68 8.192H36.688V11.616H39.68C40.1493 11.616 40.544 11.4507 40.864 11.12C41.184 10.7893 41.344 10.384 41.344 9.904C41.344 9.43467 41.1787 9.03467 40.848 8.704C40.528 8.36267 40.1387 8.192 39.68 8.192ZM40.032 16.608C40.5333 16.608 40.9547 16.432 41.296 16.08C41.6373 15.728 41.808 15.296 41.808 14.784C41.808 14.2827 41.632 13.856 41.28 13.504C40.9387 13.152 40.5227 12.976 40.032 12.976H36.688V16.608H40.032ZM53.1878 18H51.3638L46.5318 12.624V18H45.0438V6.8H46.5318V11.856L51.2038 6.8H53.0278L48.0838 12.24L53.1878 18ZM60.4018 16.992C59.5804 17.8027 58.5831 18.208 57.4098 18.208C56.2364 18.208 55.2391 17.8027 54.4178 16.992C53.6071 16.1813 53.2018 15.184 53.2018 14C53.2018 12.816 53.6071 11.8187 54.4178 11.008C55.2391 10.1973 56.2364 9.792 57.4098 9.792C58.5831 9.792 59.5804 10.1973 60.4018 11.008C61.2231 11.8187 61.6337 12.816 61.6337 14C61.6337 15.184 61.2231 16.1813 60.4018 16.992ZM57.4098 16.848C58.2098 16.848 58.8818 16.576 59.4258 16.032C59.9698 15.488 60.2418 14.8107 60.2418 14C60.2418 13.1893 59.9698 12.512 59.4258 11.968C58.8818 11.424 58.2098 11.152 57.4098 11.152C56.6204 11.152 55.9538 11.424 55.4098 11.968C54.8658 12.512 54.5938 13.1893 54.5938 14C54.5938 14.8107 54.8658 15.488 55.4098 16.032C55.9538 16.576 56.6204 16.848 57.4098 16.848ZM68.8108 10H70.2028V18H68.8108V14.656H64.6668V18H63.2747V10H64.6668V13.328H68.8108V10ZM78.2736 10V11.344H75.5536V18H74.1616V11.344H71.4256V10H78.2736ZM85.805 10H87.197V18H85.805V16.624C85.1117 17.68 84.1037 18.208 82.781 18.208C81.661 18.208 80.7063 17.8027 79.917 16.992C79.1277 16.1707 78.733 15.1733 78.733 14C78.733 12.8267 79.1277 11.8347 79.917 11.024C80.7063 10.2027 81.661 9.792 82.781 9.792C84.1037 9.792 85.1117 10.32 85.805 11.376V10ZM82.957 16.864C83.7677 16.864 84.445 16.592 84.989 16.048C85.533 15.4933 85.805 14.8107 85.805 14C85.805 13.1893 85.533 12.512 84.989 11.968C84.445 11.4133 83.7677 11.136 82.957 11.136C82.157 11.136 81.485 11.4133 80.941 11.968C80.397 12.512 80.125 13.1893 80.125 14C80.125 14.8107 80.397 15.4933 80.941 16.048C81.485 16.592 82.157 16.864 82.957 16.864ZM96.074 18H94.346L90.698 14.208V18H89.306V10H90.698V13.536L94.154 10H95.946L92.122 13.872L96.074 18ZM103.321 10V11.344H100.601V18H99.2085V11.344H96.4725V10H103.321ZM105.204 14.64C105.343 15.3547 105.668 15.9093 106.18 16.304C106.703 16.6987 107.343 16.896 108.1 16.896C109.156 16.896 109.924 16.5067 110.404 15.728L111.588 16.4C110.809 17.6053 109.636 18.208 108.068 18.208C106.799 18.208 105.764 17.8133 104.964 17.024C104.175 16.224 103.78 15.216 103.78 14C103.78 12.7947 104.169 11.792 104.948 10.992C105.727 10.192 106.735 9.792 107.972 9.792C109.145 9.792 110.1 10.208 110.836 11.04C111.583 11.8613 111.956 12.8533 111.956 14.016C111.956 14.2187 111.94 14.4267 111.908 14.64H105.204ZM107.972 11.104C107.225 11.104 106.607 11.3173 106.116 11.744C105.625 12.16 105.321 12.72 105.204 13.424H110.548C110.431 12.6667 110.132 12.0907 109.652 11.696C109.172 11.3013 108.612 11.104 107.972 11.104Z" fill="#7E838C"/>
<path d="M22.4781 7.14061C22.6239 6.65623 22.4781 6.30103 21.7885 6.30103H19.5041C18.9229 6.30103 18.6573 6.60832 18.5114 6.94582C18.5114 6.94582 17.35 9.77811 15.7041 11.6146C15.1729 12.1489 14.9302 12.3177 14.6406 12.3177C14.4958 12.3177 14.2854 12.1489 14.2854 11.6646V7.14061C14.2854 6.55936 14.1177 6.30103 13.6333 6.30103H10.0437C9.68123 6.30103 9.46248 6.56978 9.46248 6.82603C9.46248 7.37603 10.2854 7.50311 10.3698 9.05311V12.4156C10.3698 13.1521 10.2375 13.2864 9.94581 13.2864C9.17186 13.2864 7.28852 10.4437 6.17081 7.18957C5.9531 6.55728 5.73331 6.30207 5.14998 6.30207H2.86665C2.21352 6.30207 2.08331 6.60936 2.08331 6.94686C2.08331 7.55311 2.85727 10.5531 5.68852 14.5208C7.57602 17.2302 10.2333 18.6989 12.6541 18.6989C14.1052 18.6989 14.2844 18.3729 14.2844 17.8104V15.7625C14.2844 15.1104 14.4229 14.9792 14.8823 14.9792C15.2198 14.9792 15.801 15.15 17.1562 16.4552C18.7041 18.0031 18.9604 18.6979 19.8302 18.6979H22.1135C22.7656 18.6979 23.0916 18.3719 22.9041 17.7281C22.6989 17.0875 21.9594 16.1552 20.9781 15.0521C20.4448 14.4229 19.6479 13.7458 19.4052 13.4073C19.0666 12.9708 19.1646 12.7781 19.4052 12.3906C19.4062 12.3917 22.1885 8.4729 22.4781 7.14061Z" fill="#7E838C"/>
</svg>
